<svg width="32" height="24" viewBox="0 0 32 24" fill="none" xmlns="http://www.w3.org/2000/svg">
<path d="M24.4297 0.5C25.4659 0.500002 26.4875 0.593206 27.4961 0.77832C28.5011 0.962805 29.496 1.23738 30.4814 1.60254C30.7404 1.71256 30.9594 1.87303 31.1426 2.09082L31.2188 2.18848C31.4079 2.44473 31.5 2.72256 31.5 3.03711V20.3164C31.5 20.8668 31.33 21.2645 31.0195 21.5605C30.8537 21.7185 30.7065 21.7975 30.5811 21.8301C30.4903 21.8536 30.3935 21.8575 30.2852 21.835L30.1729 21.8027H30.1709C29.346 21.5165 28.5149 21.3097 27.6758 21.1836L27.3154 21.1348C26.371 21.0189 25.4082 20.96 24.4297 20.96C22.8439 20.96 21.3213 21.2055 19.8652 21.6982C18.5212 22.1531 17.226 22.7303 15.9795 23.4268C14.8995 22.8234 13.784 22.3088 12.6299 21.8867L12.0947 21.6982C10.6387 21.2055 9.11609 20.96 7.53027 20.96C6.90193 20.96 6.27169 20.9908 5.63965 21.0518L5.00684 21.123C4.36799 21.2048 3.73826 21.3281 3.11914 21.4932L2.50293 21.6719L2.49121 21.6768C1.99224 21.8479 1.55204 21.7904 1.12012 21.5029C0.701394 21.2241 0.5 20.8491 0.5 20.3174V3.03711C0.500009 2.75615 0.567785 2.50552 0.705078 2.27539L0.768555 2.17871C0.951714 1.91677 1.18705 1.72666 1.48145 1.60156C2.34213 1.28393 3.21083 1.03435 4.08594 0.852539L4.46387 0.77832C5.47246 0.593204 6.49403 0.500005 7.53027 0.5C8.98871 0.5 10.4125 0.68498 11.8008 1.05371C13.0162 1.37654 14.1711 1.82816 15.2656 2.40723L15.7314 2.66309L15.9727 2.80078L16.2168 2.66895C17.48 1.98801 18.8014 1.45549 20.1836 1.07227C21.5579 0.691249 22.9716 0.5 24.4297 0.5ZM24.4326 1.375C23.0523 1.375 21.705 1.55088 20.3936 1.90527C19.2463 2.21535 18.1581 2.65276 17.1289 3.21875L16.6914 3.46875L16.4473 3.61426V21.0996L16.1035 21.2725L16.5918 21.7617L16.5938 21.7627L17.4473 22.6182V21.7197C18.5222 21.2019 19.6147 20.8061 20.7256 20.5322C21.9297 20.2354 23.1614 20.0869 24.4229 20.0869C25.3762 20.0869 26.2883 20.1289 27.1572 20.2139C27.9952 20.2958 28.7279 20.491 29.3623 20.793L29.373 20.7979L29.3848 20.8027C29.6437 20.9109 29.9306 20.9016 30.1826 20.7393C30.4517 20.5658 30.5645 20.2886 30.5645 20.0107V3.2373C30.5645 3.04822 30.5087 2.86518 30.3936 2.70605H30.3945C30.2671 2.52833 30.0841 2.42106 29.918 2.35352L29.8994 2.34668L29.8809 2.34082L29.1943 2.13184C28.515 1.93474 27.8565 1.77146 27.2207 1.64062C26.3543 1.46235 25.423 1.37502 24.4326 1.375ZM15.5488 3.60938L15.3037 3.46484C14.1464 2.77851 12.9063 2.25758 11.583 1.90332C10.2605 1.54934 8.90917 1.37305 7.53027 1.37305C6.79211 1.37305 6.08562 1.41129 5.41016 1.48926L4.74512 1.58105C3.86056 1.72241 2.95929 1.98133 2.04395 2.35547V2.35645C1.89389 2.4103 1.73437 2.49674 1.6123 2.64258L1.56055 2.71094C1.4534 2.86885 1.39844 3.04999 1.39844 3.24023V20.0127C1.39856 20.2903 1.51062 20.5668 1.7793 20.7402C2.03176 20.903 2.31402 20.9068 2.56445 20.8076L2.56543 20.8096C3.24441 20.5473 4.00105 20.3609 4.83789 20.252C5.68461 20.1417 6.58403 20.0869 7.53809 20.0869C8.6438 20.0869 9.72932 20.2103 10.7939 20.4561L11.249 20.5693C12.4739 20.8938 13.6709 21.3248 14.8398 21.8623L15.5488 22.1885V3.60938Z" fill="#F1ECE8" stroke="#F1ECE8"/>
<path d="M24.3467 5.5C24.8149 5.50001 25.2587 5.5149 25.6777 5.54492L26.0879 5.58008C26.4887 5.61948 26.8839 5.68172 27.2744 5.76562V6.32031C26.7685 6.23552 26.3126 6.17395 25.9072 6.13672C25.3564 6.08615 24.8354 6.06055 24.3467 6.06055C23.4118 6.06055 22.4756 6.14317 21.5391 6.30957C20.8415 6.43351 20.1621 6.59762 19.5 6.80273V6.30566C19.9217 6.14788 20.3797 6.00925 20.874 5.89062L21.5098 5.75391C22.3757 5.58609 23.321 5.5 24.3467 5.5Z" fill="#F1ECE8" stroke="#F1ECE8"/>
<path d="M24.3467 9.99695C24.8149 9.99695 25.2587 10.0119 25.6777 10.0419L26.0879 10.077C26.4887 10.1164 26.8839 10.1787 27.2744 10.2626V10.8173C26.7685 10.7325 26.3126 10.6709 25.9072 10.6337C25.3564 10.5831 24.8354 10.5575 24.3467 10.5575C23.4118 10.5575 22.4756 10.6401 21.5391 10.8065C20.8415 10.9305 20.1621 11.0946 19.5 11.2997V10.8026C19.9217 10.6448 20.3797 10.5062 20.874 10.3876L21.5098 10.2509C22.3757 10.083 23.321 9.99695 24.3467 9.99695Z" fill="#F1ECE8" stroke="#F1ECE8"/>
<path d="M24.3467 14.494C24.8149 14.494 25.2587 14.5089 25.6777 14.5389L26.0879 14.5741C26.4887 14.6135 26.8839 14.6757 27.2744 14.7596V15.3143C26.7685 15.2295 26.3126 15.168 25.9072 15.1307C25.3564 15.0802 24.8354 15.0546 24.3467 15.0546C23.4118 15.0546 22.4756 15.1372 21.5391 15.3036C20.8415 15.4275 20.1621 15.5916 19.5 15.7968V15.2997C19.9217 15.1419 20.3797 15.0033 20.874 14.8846L21.5098 14.7479C22.3757 14.5801 23.321 14.494 24.3467 14.494Z" fill="#F1ECE8" stroke="#F1ECE8"/>
</svg>
