<svg width="32" height="29" viewBox="0 0 32 29" fill="none" xmlns="http://www.w3.org/2000/svg">
<path d="M6.18359 0.900391H25.8164C28.8197 0.900391 31.0995 3.08712 31.0996 5.60352V23.3965C31.0995 25.9129 28.8197 28.0996 25.8164 28.0996H6.18359C3.18032 28.0996 0.900498 25.9129 0.900391 23.3965V5.60352C0.900497 3.08712 3.18032 0.900391 6.18359 0.900391Z" stroke="#F1ECE8" stroke-width="1.8"/>
<path d="M1 7L31 7" stroke="#F1ECE8" stroke-width="2"/>
<path d="M5 22H11" stroke="#F1ECE8" stroke-width="1.8"/>
<path d="M13 22H19" stroke="#F1ECE8" stroke-width="1.8"/>
<path d="M5 12H11" stroke="#F1ECE8" stroke-width="1.8"/>
<path d="M13 12H19" stroke="#F1ECE8" stroke-width="1.8"/>
<path d="M21 12H27" stroke="#F1ECE8" stroke-width="1.8"/>
<path d="M5 17H11" stroke="#F1ECE8" stroke-width="1.8"/>
<path d="M13 17H19" stroke="#F1ECE8" stroke-width="1.8"/>
<path d="M21 17H27" stroke="#F1ECE8" stroke-width="1.8"/>
</svg>
