<svg width="130" height="142" viewBox="0 0 130 142" fill="none" xmlns="http://www.w3.org/2000/svg">
<path d="M120.153 130.807H125.117V129.647H121.408V127.921H124.592V126.817H121.408V125.297H124.873V124.136H120.153V130.807ZM114.846 130.807H116.1V124.136H114.846V130.807ZM104.554 130.807H105.752V125.241H105.771L107.083 130.807H108.264L109.576 125.241H109.594V130.807H110.793V124.136H108.929L107.71 129.308H107.691L106.474 124.136H104.554V130.807ZM96.0619 130.807H101.025V129.647H97.3163V127.921H100.501V126.817H97.3163V125.297H100.782V124.136H96.0619V130.807ZM87.952 125.297H89.067C90.4351 125.297 91.0071 126.159 91.0071 127.471C91.0071 129.196 90.3325 129.647 89.0949 129.647H87.952V125.297ZM86.6978 130.807H89.2732C91.2597 130.807 92.3175 129.647 92.3175 127.471C92.3175 125.56 91.3441 124.136 89.0393 124.136H86.6978V130.807ZM77.4078 130.807H78.7195L79.104 129.514H81.633L82.0175 130.807H83.3284L81.0993 124.136H79.6377L77.4078 130.807ZM81.2957 128.409H79.441L80.3593 125.353H80.3777L81.2957 128.409ZM69.1875 130.807H70.4416V128.897L71.5094 127.688L73.271 130.807H74.7233L72.3905 126.666L74.5738 124.136H73.0835L70.4416 127.135V124.136H69.1875V130.807ZM59.8979 130.807H61.2093L61.5934 129.514H64.1234L64.5075 130.807H65.8192L63.5892 124.136H62.1276L59.8979 130.807ZM63.7858 128.409H61.9313L62.849 125.353H62.8678L63.7858 128.409ZM53.1004 125.241H54.2812C55.153 125.241 55.5658 125.634 55.5658 126.244C55.5658 126.872 55.1061 127.248 54.4687 127.248H53.1004V125.241ZM51.8461 130.807H53.1004V128.352H54.3002L55.5936 130.807H57.0448L55.5562 128.118C55.8741 127.996 56.876 127.65 56.876 126.15C56.876 124.979 56.0426 124.136 54.6284 124.136H51.8461V130.807ZM43.3534 130.807H48.3174V129.647H44.6078V127.921H47.7933V126.817H44.6078V125.297H48.0739V124.136H43.3534V130.807ZM36.8282 130.807H38.0823V125.297H39.9093V124.136H35.0012V125.297H36.8282V130.807ZM31.5574 124.136H30.3028V128.428C30.3028 129.243 29.9563 129.759 28.869 129.759C27.7815 129.759 27.435 129.243 27.435 128.428V124.136H26.1807V128.756C26.1807 130.114 27.2569 130.975 28.869 130.975C30.4808 130.975 31.5574 130.114 31.5574 128.756V124.136ZM16.8912 130.807H18.2027L18.5868 129.514H21.1166L21.5005 130.807H22.812L20.5823 124.136H19.1209L16.8912 130.807ZM20.7789 128.409H18.9242L19.842 125.353H19.8611L20.7789 128.409ZM10.0936 125.241H11.2744C12.1462 125.241 12.5588 125.634 12.5588 126.244C12.5588 126.872 12.0992 127.248 11.462 127.248H10.0936V125.241ZM8.83916 130.807H10.0936V128.352H11.2935L12.5868 130.807H14.0377L12.5492 128.118C12.8675 127.996 13.8692 127.65 13.8692 126.15C13.8692 124.979 13.036 124.136 11.6214 124.136H8.83916V130.807ZM0 130.807H1.25419V128.897L2.32222 127.688L4.0833 130.807H5.53558L3.20291 126.666L5.38564 124.136H3.89621L1.25419 127.135V124.136H0V130.807Z" fill="#363433"/>
<path d="M124.459 141.697H125.09V136.912H124.459V141.697ZM118.358 141.697H121.374V141.147H118.988V136.912H118.358V141.697ZM112.329 141.697H115.347V141.147H112.961V136.912H112.329V141.697ZM105.105 139.305C105.105 138.249 105.643 137.301 106.826 137.301C108.009 137.301 108.547 138.249 108.547 139.305C108.547 140.36 108.009 141.308 106.826 141.308C105.643 141.308 105.105 140.36 105.105 139.305ZM104.42 139.305C104.42 140.797 105.334 141.818 106.826 141.818C108.318 141.818 109.231 140.797 109.231 139.305C109.231 137.812 108.318 136.791 106.826 136.791C105.334 136.791 104.42 137.812 104.42 139.305ZM97.8415 141.697H101.651V141.147H98.5204L101.524 137.503V136.912H98.077V137.462H100.832L97.8415 141.093V141.697ZM91.4441 141.697H95.2539V141.147H92.123L95.1264 137.503V136.912H91.6796V137.462H94.4352L91.4441 141.093V141.697ZM87.8229 141.697H88.4536V136.912H87.8229V141.697ZM81.606 137.462H83.0377C83.6292 137.462 84.0463 137.657 84.0463 138.289C84.0463 138.928 83.6292 139.116 83.0377 139.116H81.606V137.462ZM80.9751 141.697H81.606V139.667H82.8295L84.1201 141.697H84.8856L83.5687 139.627C84.402 139.492 84.6774 138.901 84.6774 138.289C84.6774 137.2 83.8916 136.912 83.1388 136.912H80.9751V141.697ZM72.1676 137.462H73.5992C74.1908 137.462 74.6078 137.657 74.6078 138.289C74.6078 138.928 74.1908 139.116 73.5992 139.116H72.1676V137.462ZM71.5367 141.697H72.1676V139.667H73.3911L74.6816 141.697H75.4469L74.1302 139.627C74.9633 139.492 75.239 138.901 75.239 138.289C75.239 137.2 74.4529 136.912 73.7004 136.912H71.5367V141.697ZM65.1392 141.697H68.5659V141.147H65.7702V139.492H68.1423V138.942H65.7702V137.462H68.4986V136.912H65.1392V141.697ZM59.1119 141.697H62.1281V141.147H59.7424V136.912H59.1119V141.697ZM54.8979 139.681H53.4736L54.1987 137.697H54.2124L54.8979 139.681ZM52.0492 141.697H52.7273L53.2785 140.232H55.0925L55.6032 141.697H56.2818L54.5484 136.912H53.8766L52.0492 141.697ZM45.3225 141.697H45.9533V139.492H48.5886V141.697H49.2191V136.912H48.5886V138.942H45.9533V136.912H45.3225V141.697ZM40.3699 141.697H41.0008V137.462H42.4392V136.912H38.9315V137.462H40.3699V141.697ZM30.2385 137.462H31.3613C32.423 137.462 32.8467 138.181 32.8467 139.27C32.8467 140.381 32.4435 141.147 31.307 141.147H30.2385V137.462ZM29.6076 141.697H31.4148C32.8467 141.697 33.5315 140.696 33.5315 139.331C33.5315 137.893 32.8737 136.912 31.4148 136.912H29.6076V141.697ZM25.6564 141.697H26.2872V136.912H25.6564V141.697ZM19.4394 137.462H20.8715C21.4632 137.462 21.8799 137.657 21.8799 138.289C21.8799 138.928 21.4632 139.116 20.8715 139.116H19.4394V137.462ZM18.8089 141.697H19.4394V139.667H20.6634L21.9538 141.697H22.719L21.4027 139.627C22.2359 139.492 22.5109 138.901 22.5109 138.289C22.5109 137.2 21.7252 136.912 20.9726 136.912H18.8089V141.697ZM15.0122 141.738H15.5623V139.177H13.3457V139.728H14.9985C14.9985 140.75 14.3 141.268 13.2981 141.268C12.1154 141.268 11.5776 140.32 11.5776 139.264C11.5776 138.242 12.2291 137.341 13.2981 137.341C14.2054 137.341 14.7031 137.765 14.9116 138.37L15.5422 138.201C15.2003 137.274 14.3128 136.791 13.2981 136.791C11.7586 136.791 10.8929 138.073 10.8929 139.305C10.8929 140.797 11.8057 141.818 13.2981 141.818C13.9639 141.818 14.602 141.63 14.9985 141.032H15.0122V141.738ZM7.08919 141.697H7.71994V136.912H7.08919V141.697ZM3.90364 138.282C3.76974 137.24 2.96341 136.791 1.97502 136.791C1.14834 136.791 0.262123 137.227 0.262123 138.154C0.262123 139.928 3.29934 139.034 3.29934 140.352C3.29934 141.032 2.72136 141.308 2.11612 141.308C1.28944 141.308 0.745106 140.951 0.711207 140.084L0.0268555 140.145C0.107436 141.369 1.00724 141.818 2.14298 141.818C3.05107 141.818 3.98425 141.348 3.98425 140.334C3.98425 138.335 0.946863 139.282 0.946863 138.02C0.946863 137.456 1.565 137.301 2.01558 137.301C2.68135 137.301 3.21904 137.609 3.25255 138.315L3.90364 138.282Z" fill="#363433"/>
<path d="M61.7687 56.2591C66.8323 57.5397 71.9413 55.7388 78.4062 50.358C88.7423 41.7553 91.296 26.025 91.296 26.025C91.296 26.025 78.5821 30.8527 69.9254 30.9557C65.2967 31.0109 60.9304 33.1451 57.5648 36.0438C59.6641 39.008 61.1154 42.4153 61.8719 45.8109C67.2396 43.822 72.0921 41.4982 77.0288 38.2257C72.3627 41.766 67.7353 45.5944 62.2193 47.6573C62.6738 50.7211 62.5243 53.6926 61.7687 56.2591ZM48.7061 29.981C40.3625 25.8369 30.1994 15.2167 30.1994 15.2167C30.1994 15.2167 25.6408 31.6554 31.8115 44.8221C37.9818 57.9882 44.8518 60.7394 56.7996 57.3311C48.589 51.7031 43.2613 42.6626 38.5714 33.7075C43.9866 42.6406 49.786 49.6111 59.8083 55.5741C62.4263 48.0687 58.4666 34.8292 48.7061 29.981ZM69.904 29.7818C70.0139 29.7803 70.1316 29.7696 70.2426 29.7666C70.219 27.847 70.0149 25.7383 69.6133 23.3863C67.3218 9.96412 55.1441 0 55.1441 0C55.1441 0 53.052 13.6993 48.9102 21.4711C47.9138 23.3403 47.324 25.5203 47.0195 27.5841C47.8662 28.1073 48.7071 28.5934 49.5243 28.9995C52.3927 30.4242 54.7981 32.5363 56.7491 35.0036C57.1652 34.6587 57.5847 34.3244 58.0144 34.0118C58.5912 28.7186 58.9243 24.0209 58.5856 18.6875C59.1788 23.4023 60.2216 27.371 59.564 32.9667C62.845 30.9406 66.4073 29.8233 69.904 29.7818Z" fill="#668E36"/>
<path d="M125.09 133.458H0.0268555V134.309H125.09V133.458Z" fill="#363433"/>
<path d="M22.2671 125.531C22.6522 125.531 22.9648 125.219 22.9648 124.834C22.9648 124.448 22.6522 124.136 22.2671 124.136C21.8819 124.136 21.5693 124.448 21.5693 124.834C21.5693 125.219 21.8819 125.531 22.2671 125.531Z" fill="#363433"/>
<path d="M17.4456 125.531C17.8306 125.531 18.1432 125.219 18.1432 124.834C18.1432 124.448 17.8306 124.136 17.4456 124.136C17.0604 124.136 16.7478 124.448 16.7478 124.834C16.7478 125.219 17.0604 125.531 17.4456 125.531Z" fill="#363433"/>
<path d="M11.9321 54.4661C14.0247 52.0594 31.8013 50.1666 31.8013 50.1666L29.7061 46.0943C29.7061 46.0943 5.14462 47.9606 3.02332 53.4899C0.9023 59.0196 2.59419 69.6144 7.58135 81.7182C12.5688 93.8233 22.9731 101.972 22.9731 101.972C24.1175 100.745 25.672 99.5494 27.6673 98.3836C28.179 98.0836 28.6648 97.8071 29.1588 97.5237C29.1588 97.5237 19.4625 89.4866 15.7504 80.487C8.5711 63.0821 10.023 56.6618 11.9321 54.4661ZM43.1884 102.325C42.2119 105.12 39.7107 107.805 35.7355 110.308C34.0385 111.375 32.5134 112.096 31.1216 112.463C29.6841 112.866 28.6863 112.755 28.1627 112.177C27.4975 111.454 27.3743 110.357 27.7919 108.887C28.1065 107.567 28.8474 106.104 30.0206 104.46C32.5333 100.864 35.4833 98.1637 38.8694 96.359C39.5695 96.0099 40.3483 95.6728 41.2466 95.3544C42.3761 96.2319 43.0901 97.17 43.3963 98.1284C43.8308 99.3138 43.7486 100.711 43.1884 102.325ZM71.8206 107.3C72.125 109.436 71.8206 111.068 70.9468 112.273C70.1488 113.321 69.1982 113.788 68.0583 113.671C66.9563 113.555 66.2717 112.972 66.082 111.884C65.8544 110.602 66.4239 109.087 67.8306 107.338C68.6669 106.29 69.8063 105.046 71.2887 103.608C71.403 105.008 71.5932 106.25 71.8206 107.3ZM85.046 89.3498C84.0583 89.6606 83.184 89.6606 82.4242 89.3498C81.5499 89.001 81.056 88.6511 80.9041 88.3012C80.7898 88.0295 80.9421 87.8352 81.3985 87.6797C82.044 87.4853 83.2222 88.0295 84.9325 89.2724L84.9708 89.3115C84.9956 89.337 85.0206 89.3498 85.046 89.3498ZM62.8882 60.4834C42.8962 61.6218 20.2296 60.3754 20.2296 60.3754V60.9168C20.2296 60.9168 35.593 62.9199 60.2284 63.0308L62.2316 63.0216C62.2481 63.0235 62.264 63.0308 62.2811 63.0308C60.9916 66.4505 58.5395 73.6722 56.8075 80.4167C55.6201 85.0297 54.7119 89.2599 54.072 93.1216C50.0507 92.9359 46.3721 93.272 42.9678 94.124C40.6724 92.9036 39.0454 91.8258 38.1328 90.8576C36.8648 89.5441 35.9856 87.7931 35.5065 85.5223C34.9316 83.0716 35.0708 79.9007 35.89 75.9628C36.996 70.6185 39.1956 67.2228 42.5284 65.7839C43.2284 65.4346 43.7144 65.7165 44.026 66.6346C44.2706 67.4593 44.2912 68.7062 44.0875 70.3753C43.6674 74.0836 42.5031 77.8848 40.635 81.7874C42.0148 81.5002 43.4703 80.9764 45.0009 80.2153C48.0108 78.768 49.8149 76.9711 50.452 74.8301C51.1646 72.4518 50.725 70.187 49.2192 68.0085C47.8478 66.016 46.0796 64.7921 43.9099 64.3783C42.1428 63.9841 40.2808 64.2381 38.2898 65.0951C36.3446 65.9168 34.5726 67.2213 33.0245 68.9338C31.4132 70.8015 30.2597 72.8641 29.593 75.2085C28.8504 77.789 28.7427 80.4675 29.361 83.1742C30.0231 86.1358 31.6007 88.6568 34.1464 90.6621C34.9816 91.3293 36.0885 92.079 37.4676 92.9115C39.1064 93.9082 40.1458 94.5648 40.5464 94.8737C37.8517 95.8302 33.9598 97.765 28.9043 100.724C25.1351 102.925 23.3731 105.268 23.6976 107.764C23.9033 109.412 25.2013 111.351 27.5524 113.576C29.2328 115.118 31.292 116.012 33.7748 116.226C35.9746 116.438 38.3362 116.094 40.8605 115.194C43.2022 114.433 45.2744 113.299 47.1555 111.804C49.0311 110.349 50.345 108.85 51.0581 107.301C51.8289 105.636 51.8633 103.733 51.2022 101.601C50.4569 99.2074 48.9764 97.4064 46.8398 96.2083L43.9796 94.6937C48.3119 93.8838 50.9055 93.741 53.9416 93.9258C53.0607 99.4994 52.7591 104.279 53.0373 108.257C53.1767 109.854 55.123 112.686 57.8903 110.185C57.8503 110.226 57.8903 110.226 57.9309 110.185C60.6576 107.888 63.4655 105.141 66.3127 101.943C68.0613 100.009 69.7214 97.3117 71.2977 93.8691C71.2806 93.9747 71.4255 93.8417 71.6472 93.5915C71.244 96.5202 71.0719 99.2961 71.175 101.899C70.9468 102.133 70.7189 102.326 70.4907 102.482C67.4125 104.697 65.4742 106.717 64.6759 108.621C63.9538 110.291 64.1438 111.729 65.17 112.933C66.082 114.021 67.5264 114.798 69.5401 115.226C71.4401 115.653 73.3792 115.692 75.3175 115.342C76.6088 115.108 77.5211 114.06 78.0918 112.155C78.5097 110.719 78.6616 109.32 78.5479 107.882C77.6736 98.325 77.7499 91.5258 78.8516 87.4853C79.9918 83.1731 81.7784 78.2775 84.1728 72.7216C84.8183 71.207 86.2627 69.6911 88.4289 68.1761C89.075 67.9044 89.6831 67.7877 90.1775 67.7877C91.925 67.7877 93.1038 68.759 93.6736 70.6625C94.3194 72.6825 94.1297 75.4017 93.1418 78.7827C91.7731 83.4057 89.5689 86.7085 86.5669 88.612C84.0965 87.2527 82.6898 86.5912 82.3485 86.6303C81.6258 86.7085 80.9803 87.1354 80.4097 87.9514C79.8016 88.8447 80.0298 89.5441 81.056 90.0492C82.3865 90.6708 84.2108 90.8261 86.5289 90.5156C88.3147 91.9919 89.6068 93.3903 90.4809 94.6734C91.127 95.7217 91.773 98.6748 92.3812 103.531C92.9512 108.271 93.7113 111.185 94.6236 112.273C95.3872 113.203 96.3347 113.547 97.4785 113.318C102.503 112.61 113.591 100.469 118.958 85.9658C119.271 84.0984 118.26 86.0625 112.537 95.4442C106.029 106.11 101.346 107.907 99.9787 107.861C99.8026 107.8 99.6653 107.722 99.6024 107.61C99.6404 107.61 99.2984 106.679 98.6526 104.774C96.1055 97.2764 93.9392 92.9243 92.1155 91.7202L89.1507 90.0102C91.5451 89.3889 93.4831 88.5339 94.966 87.4462C96.8281 86.0869 98.3485 84.0273 99.5261 81.1914C100.628 78.4331 101.046 75.9079 100.705 73.6157C100.438 71.3623 99.6404 69.4971 98.3104 68.0592C97.0554 66.6609 95.5356 65.9228 93.7493 65.845C92.3432 65.7674 90.4432 65.9999 88.0108 66.5442C87.4032 65.6511 86.2245 65.0291 84.4764 64.6794C82.8901 64.3661 81.0129 64.2274 78.841 64.2641C77.4234 64.1102 77.021 68.0075 78.1677 67.3987C78.7373 67.1271 79.042 67.2048 79.042 67.5546C79.0798 67.9431 78.7373 68.8366 78.0155 70.2349C76.4192 74.3534 74.8231 79.5204 73.1887 85.7764C73.1087 86.091 73.0392 86.3977 72.9641 86.7096C72.8053 87.1091 72.6311 87.839 72.4724 88.6158L72.3722 88.6902C71.8984 89.8813 71.3245 91.3147 70.6451 93.0043C68.4783 98.3757 66.3127 101.328 64.1872 101.861C63.1845 102.107 62.3823 101.246 61.7004 99.2777C60.7782 92.8822 60.9787 87.2234 62.2621 82.3436C63.6742 77.0385 67.2054 69.0217 70.689 62.9932C70.7514 62.9927 70.8263 62.9722 70.898 62.9556C106.1 62.3253 125.122 57.8451 125.122 53.9237C125.122 50.6181 114.831 48.523 110.339 47.7657C109.134 48.8498 107.985 49.8828 106.95 50.8145C109.004 51.1604 111.675 51.8341 111.675 53.0024C111.675 54.8994 82.8803 59.345 62.8882 60.4834ZM128.106 25.7358C127.918 25.3978 127.692 25.0268 127.389 24.5974C126.684 23.5675 125.809 22.5097 124.743 21.4407C119.054 15.57 113.643 15.5881 111.606 17.0367C109.334 18.652 109.532 26.4281 108.149 27.8421C107.152 28.8612 85.2639 47.2 73.1361 57.3419C77.4441 56.9544 81.8869 56.4712 86.1791 55.9342C95.3666 46.7563 110.377 31.757 111.804 30.367C113.879 28.3467 113.582 21.4798 114.768 20.4699C115.953 19.46 120.004 19.46 123.955 24.206C124.01 24.2731 124.062 24.3277 124.118 24.3922C127.268 28.5061 126.715 31.9813 125.643 32.9325C124.478 33.9663 117.721 32.7171 115.433 34.4911C114.079 35.5401 103.48 47.2112 96.9686 54.4245C98.0589 54.2541 99.1147 54.083 100.13 53.9111C107.013 47.7198 116.861 38.8776 117.424 38.4627C119.015 37.2897 126.687 38.5673 128.603 36.5416C130.05 35.0114 131.034 30.7818 128.106 25.7358Z" fill="#706762"/>
</svg>
