<svg width="64" height="59" viewBox="0 0 64 59" fill="none" xmlns="http://www.w3.org/2000/svg">
<path d="M33.7687 56.2591C38.8323 57.5397 43.9413 55.7388 50.4062 50.358C60.7423 41.7553 63.296 26.025 63.296 26.025C63.296 26.025 50.5821 30.8527 41.9254 30.9557C37.2967 31.0109 32.9304 33.1451 29.5648 36.0438C31.6641 39.008 33.1154 42.4153 33.8719 45.8109C39.2396 43.822 44.0921 41.4982 49.0288 38.2257C44.3627 41.766 39.7353 45.5944 34.2193 47.6573C34.6738 50.7211 34.5243 53.6926 33.7687 56.2591ZM20.7061 29.981C12.3625 25.8369 2.1994 15.2167 2.1994 15.2167C2.1994 15.2167 -2.35918 31.6554 3.81151 44.8221C9.98176 57.9882 16.8518 60.7394 28.7996 57.3311C20.589 51.7031 15.2613 42.6626 10.5714 33.7075C15.9866 42.6406 21.786 49.6111 31.8083 55.5741C34.4263 48.0687 30.4666 34.8292 20.7061 29.981ZM41.904 29.7818C42.0139 29.7803 42.1316 29.7696 42.2426 29.7666C42.219 27.847 42.0149 25.7383 41.6133 23.3863C39.3218 9.96412 27.1441 0 27.1441 0C27.1441 0 25.052 13.6993 20.9102 21.4711C19.9138 23.3403 19.324 25.5203 19.0195 27.5841C19.8662 28.1073 20.7071 28.5934 21.5243 28.9995C24.3927 30.4242 26.7981 32.5363 28.7491 35.0036C29.1652 34.6587 29.5847 34.3244 30.0144 34.0118C30.5912 28.7186 30.9243 24.0209 30.5856 18.6875C31.1788 23.4023 32.2216 27.371 31.564 32.9667C34.845 30.9406 38.4073 29.8233 41.904 29.7818Z" fill="#668E36"/>
</svg>
