<svg width="32" height="27" viewBox="0 0 32 27" fill="none" xmlns="http://www.w3.org/2000/svg">
<path d="M21.1582 0.875L24.0107 3.96191L24.1602 4.12305H29.3428C29.8787 4.12312 30.3194 4.27825 30.707 4.60547L30.8701 4.75684C31.2972 5.18785 31.5 5.68065 31.5 6.2998V23.6982C31.5 24.3174 31.2973 24.8102 30.8701 25.2412C30.4431 25.672 29.9553 25.875 29.3457 25.875H2.6543C2.04468 25.875 1.55695 25.672 1.12988 25.2412C0.702677 24.8102 0.500022 24.3174 0.5 23.6982V6.2998C0.5 5.75918 0.654943 5.31364 0.980469 4.9209L1.13086 4.75586C1.55686 4.32516 2.04433 4.12313 2.65723 4.12305H7.88672L8.03613 3.95898L10.8311 0.875H21.1582ZM11.0498 1.88281L8.18945 4.9707H2.65723C2.34542 4.97078 2.05181 5.0698 1.81348 5.26367L1.71484 5.35254L1.71094 5.35645C1.45893 5.61356 1.33105 5.94804 1.33105 6.30371V23.6953C1.33105 24.0506 1.45826 24.3859 1.71191 24.6426C1.96759 24.9012 2.30259 25.0282 2.65723 25.0283H29.3438C29.7007 25.0283 30.0353 24.8992 30.2891 24.6426C30.5422 24.3865 30.6689 24.0509 30.6689 23.6953V6.30371C30.6689 5.99305 30.5714 5.69843 30.3789 5.45801L30.291 5.3584L30.2881 5.35547L30.1885 5.26465C29.9481 5.06796 29.6535 4.97078 29.3428 4.9707H23.8584L20.9873 1.88184L20.8389 1.72266H11.1982L11.0498 1.88281ZM16.0195 8.61816C17.6858 8.6182 19.0745 9.18506 20.1768 10.2998C21.281 11.4166 21.8438 12.8112 21.8438 14.4746C21.8437 16.0351 21.3494 17.3651 20.3779 18.4414L20.1777 18.6533H20.1768C19.0745 19.7645 17.6871 20.3311 16.0205 20.3311C14.3539 20.331 12.9735 19.7646 11.8857 18.6553H11.8867C10.796 17.5417 10.2383 16.1463 10.2383 14.4785C10.2383 12.9147 10.7272 11.5901 11.6885 10.5098L11.8867 10.2969C12.9732 9.18527 14.3531 8.61816 16.0195 8.61816ZM16.0205 9.46582C14.7023 9.46585 13.5594 9.88997 12.6494 10.7363L12.4707 10.9111C11.5389 11.8681 11.0704 13.0761 11.0703 14.4678C11.0703 15.7789 11.482 16.9261 12.3018 17.8535L12.4707 18.0361C13.4088 18.9996 14.6152 19.4843 16.0215 19.4844C17.339 19.4844 18.4844 19.0627 19.4053 18.2236L19.5859 18.0508L19.5869 18.0498C20.5367 17.0942 21.0146 15.8852 21.0146 14.4873C21.0146 13.0894 20.537 11.8784 19.5898 10.917C18.6888 10.0025 17.551 9.51795 16.2363 9.4707L16.2314 9.46582H16.0205Z" fill="#F1ECE8" stroke="#F1ECE8"/>
</svg>
