<svg width="75" height="75" viewBox="0 0 75 75" fill="none" xmlns="http://www.w3.org/2000/svg">
<circle cx="37.5" cy="37.5" r="37" stroke="#363433"/>
<path d="M39.702 53.3418H33.8559V52.5664C33.8559 48.3492 33.8458 44.1319 33.868 39.9151C33.8713 39.3167 33.7305 39.08 33.0887 39.1074C31.9315 39.1557 30.7665 39.1075 29.6049 39.1248C29.1675 39.1311 28.993 38.9869 29.0002 38.524C29.024 37.0173 29.024 35.5098 29.0002 34.0015C28.9935 33.5299 29.1955 33.4065 29.6208 33.4113C30.8229 33.4253 32.0255 33.3978 33.2271 33.4238C33.703 33.434 33.8704 33.2763 33.8641 32.797C33.8462 31.4526 33.8554 30.1078 33.8786 28.7635C33.947 24.7955 36.7404 22.0161 40.7069 22.0002C42.0898 21.9949 43.4732 22.0856 44.8566 22.1237C45.253 22.1347 45.443 22.2842 45.4353 22.7139C45.4176 24.0582 45.4176 25.4027 45.4353 26.7474C45.4411 27.1814 45.2665 27.3169 44.8566 27.3106C43.8993 27.2961 42.9419 27.2995 41.9842 27.3207C40.5034 27.3535 39.7406 28.1163 39.7092 29.6078C39.6871 30.6869 39.7271 31.768 39.6914 32.8462C39.675 33.3317 39.8756 33.4248 40.3004 33.4219C41.7267 33.4055 43.1531 33.4291 44.5794 33.4103C45.091 33.4036 45.2429 33.5487 45.158 34.0902C44.9304 35.5368 44.7535 36.9877 44.5977 38.442C44.5437 38.9454 44.372 39.1484 43.8431 39.1321C42.7234 39.0978 41.6014 39.1494 40.4817 39.1113C39.8901 39.0911 39.6803 39.2352 39.6856 39.8852C39.7184 44.102 39.7025 48.3188 39.7025 52.536L39.702 53.3418Z" fill="#F1ECE8" stroke="#363433"/>
</svg>
