<svg width="75" height="75" viewBox="0 0 75 75" fill="none" xmlns="http://www.w3.org/2000/svg">
<circle cx="37.5" cy="37.5" r="37" stroke="#363433"/>
<path d="M47.2862 22H28.0563C24.7115 22 22 24.7115 22 28.0563V47.2862C22 50.631 24.7115 53.3425 28.0563 53.3425H47.2862C50.631 53.3425 53.3425 50.631 53.3425 47.2862V28.0563C53.3425 24.7115 50.631 22 47.2862 22Z" fill="#F1ECE8" stroke="#363433"/>
<path d="M46.8422 26.0127C47.0879 26.0146 47.3308 26.0649 47.5571 26.1606C47.7834 26.2564 47.9886 26.3957 48.161 26.5708C48.3334 26.7458 48.4696 26.9532 48.5619 27.1809C48.6542 27.4086 48.7008 27.6522 48.6989 27.8979C48.697 28.1436 48.6468 28.3865 48.551 28.6128C48.4553 28.8391 48.3159 29.0443 48.1409 29.2167C47.9658 29.3891 47.7585 29.5253 47.5308 29.6176C47.3031 29.7099 47.0595 29.7564 46.8138 29.7546C46.3176 29.7508 45.8432 29.5501 45.495 29.1965C45.1468 28.843 44.9533 28.3656 44.9571 27.8694C44.9609 27.3732 45.1616 26.8989 45.5151 26.5507C45.8686 26.2025 46.346 26.009 46.8422 26.0127V26.0127Z" stroke="#363433"/>
<path d="M44.0094 37.632C44.0063 38.9202 43.621 40.1784 42.9024 41.2475C42.1838 42.3166 41.1641 43.1484 39.9725 43.6377C38.7809 44.127 37.4709 44.2518 36.2084 43.9963C34.9458 43.7407 33.7875 43.1163 32.88 42.2021C31.9725 41.2879 31.3566 40.125 31.1103 38.8606C30.864 37.5962 30.9984 36.2872 31.4965 35.0992C31.9945 33.9112 32.8338 32.8977 33.9081 32.187C34.9825 31.4762 36.2435 31.1002 37.5316 31.1065C38.3859 31.108 39.2315 31.2781 40.0199 31.6071C40.8083 31.9362 41.5239 32.4176 42.1258 33.0239C42.7277 33.6302 43.2039 34.3494 43.5271 35.1402C43.8503 35.931 44.0143 36.7778 44.0094 37.632Z" stroke="#363433"/>
</svg>
