<svg width="130" height="142" viewBox="28 -3 64 64" fill="none" xmlns="http://www.w3.org/2000/svg">
<path d="M61.7687 56.2591C66.8323 57.5397 71.9413 55.7388 78.4062 50.358C88.7423 41.7553 91.296 26.025 91.296 26.025C91.296 26.025 78.5821 30.8527 69.9254 30.9557C65.2967 31.0109 60.9304 33.1451 57.5648 36.0438C59.6641 39.008 61.1154 42.4153 61.8719 45.8109C67.2396 43.822 72.0921 41.4982 77.0288 38.2257C72.3627 41.766 67.7353 45.5944 62.2193 47.6573C62.6738 50.7211 62.5243 53.6926 61.7687 56.2591ZM48.7061 29.981C40.3625 25.8369 30.1994 15.2167 30.1994 15.2167C30.1994 15.2167 25.6408 31.6554 31.8115 44.8221C37.9818 57.9882 44.8518 60.7394 56.7996 57.3311C48.589 51.7031 43.2613 42.6626 38.5714 33.7075C43.9866 42.6406 49.786 49.6111 59.8083 55.5741C62.4263 48.0687 58.4666 34.8292 48.7061 29.981ZM69.904 29.7818C70.0139 29.7803 70.1316 29.7696 70.2426 29.7666C70.219 27.847 70.0149 25.7383 69.6133 23.3863C67.3218 9.96412 55.1441 0 55.1441 0C55.1441 0 53.052 13.6993 48.9102 21.4711C47.9138 23.3403 47.324 25.5203 47.0195 27.5841C47.8662 28.1073 48.7071 28.5934 49.5243 28.9995C52.3927 30.4242 54.7981 32.5363 56.7491 35.0036C57.1652 34.6587 57.5847 34.3244 58.0144 34.0118C58.5912 28.7186 58.9243 24.0209 58.5856 18.6875C59.1788 23.4023 60.2216 27.371 59.564 32.9667C62.845 30.9406 66.4073 29.8233 69.904 29.7818Z" fill="#668E36"/>
</svg>
